<svg width="37" height="37" viewBox="0 0 37 37" fill="none" xmlns="http://www.w3.org/2000/svg">
<rect x="0.184021" y="0.328003" width="36" height="36" rx="10" fill="#FAC814"/>
<path d="M19.184 11.328C19.184 10.7757 18.7363 10.328 18.184 10.328C17.6317 10.328 17.184 10.7757 17.184 11.328V17.328L11.184 17.328C10.6317 17.328 10.184 17.7757 10.184 18.328C10.184 18.8803 10.6317 19.328 11.184 19.328H17.184V25.328C17.184 25.8803 17.6317 26.328 18.184 26.328C18.7363 26.328 19.184 25.8803 19.184 25.328V19.328H25.184C25.7363 19.328 26.184 18.8803 26.184 18.328C26.184 17.7757 25.7363 17.328 25.184 17.328L19.184 17.328V11.328Z" fill="white"/>
</svg>
