<svg width="20" height="20" viewBox="0 0 20 20" fill="none" xmlns="http://www.w3.org/2000/svg">
<circle cx="10" cy="10" r="10" fill="white"/>
<path d="M8.34786 12.5364C8.02902 12.5364 7.76814 12.2755 7.76814 11.9566V9.05804H6.6087V11.9566C6.6087 12.9132 7.39133 13.6958 8.34786 13.6958H13.8552V12.5364H8.34786Z" fill="black"/>
<path d="M6.84062 6.15944L6.72468 5.78262C6.55076 5.31885 6.11597 5 5.62321 5H4.57971V6.15944H5.62321L7.21744 10.9711C7.3044 11.203 7.5073 11.3769 7.76817 11.3769H13.2755C13.5074 11.3769 13.7103 11.232 13.7973 11.0291L16.0002 6.15944H6.84062Z" fill="black"/>
<path d="M4.57972 6.15944C4.89989 6.15944 5.15944 5.89989 5.15944 5.57972C5.15944 5.25955 4.89989 5 4.57972 5C4.25955 5 4 5.25955 4 5.57972C4 5.89989 4.25955 6.15944 4.57972 6.15944Z" fill="black"/>
<path d="M12.9857 15.435C13.4659 15.435 13.8552 15.0456 13.8552 14.5654C13.8552 14.0851 13.4659 13.6958 12.9857 13.6958C12.5054 13.6958 12.1161 14.0851 12.1161 14.5654C12.1161 15.0456 12.5054 15.435 12.9857 15.435Z" fill="#959595"/>
<path d="M8.63777 15.435C9.11802 15.435 9.50735 15.0456 9.50735 14.5654C9.50735 14.0851 9.11802 13.6958 8.63777 13.6958C8.15751 13.6958 7.76819 14.0851 7.76819 14.5654C7.76819 15.0456 8.15751 15.435 8.63777 15.435Z" fill="#959595"/>
<path d="M12.9857 14.8552C13.1457 14.8552 13.2755 14.7255 13.2755 14.5654C13.2755 14.4053 13.1457 14.2755 12.9857 14.2755C12.8256 14.2755 12.6958 14.4053 12.6958 14.5654C12.6958 14.7255 12.8256 14.8552 12.9857 14.8552Z" fill="black"/>
<path d="M8.63776 14.8552C8.79785 14.8552 8.92762 14.7255 8.92762 14.5654C8.92762 14.4053 8.79785 14.2755 8.63776 14.2755C8.47768 14.2755 8.3479 14.4053 8.3479 14.5654C8.3479 14.7255 8.47768 14.8552 8.63776 14.8552Z" fill="black"/>
</svg>
