<svg width="1440" height="501" viewBox="0 0 1440 501" fill="none" xmlns="http://www.w3.org/2000/svg">
<path d="M0 0H1440V485C1440 490.601 1440 493.401 1438.91 495.54C1437.95 497.422 1436.42 498.951 1434.54 499.91C1432.4 501 1429.6 501 1424 501H16C10.3995 501 7.59921 501 5.46009 499.91C3.57847 498.951 2.04867 497.422 1.08993 495.54C0 493.401 0 490.601 0 485V0Z" fill="#2ECC71"/>
<mask id="mask0" mask-type="alpha" maskUnits="userSpaceOnUse" x="0" y="42" width="1440" height="459">
<rect y="42" width="1440" height="459" rx="13.3571" fill="white"/>
</mask>
<g mask="url(#mask0)">
<path d="M1196.77 61.9801C1196.77 58.4701 1192.66 55.5001 1187.81 55.5001C1182.96 55.5001 1178.86 58.4701 1178.86 61.9801C1178.86 63.3301 1181.1 64.1401 1183.71 64.4101V70.6201H1191.17V64.4101C1194.53 63.8701 1196.77 63.0601 1196.77 61.9801Z" fill="#FFD15C"/>
<path d="M1016.95 115.372C1020.68 113.212 1021.43 109.162 1018.07 106.462C1015.09 103.762 1009.49 103.222 1005.76 105.652C1004.27 106.462 1005.02 108.082 1006.51 109.972L999.793 113.752L1004.64 118.072L1011.36 114.022C1013.22 115.372 1015.46 116.182 1016.95 115.372Z" fill="#FFD15C"/>
<path fill-rule="evenodd" clip-rule="evenodd" d="M1175.86 107.34C1175.86 104.1 1179.59 101.4 1184.06 101.4C1188.91 101.4 1192.64 104.1 1192.27 107.34C1192.27 110.58 1188.54 113.28 1184.06 113.28C1179.59 113.28 1175.86 110.58 1175.86 107.34ZM1178.84 107.34C1178.84 109.5 1181.08 111.12 1184.06 111.12C1187.05 111.12 1189.29 109.5 1189.29 107.34C1189.29 105.18 1187.05 103.56 1184.06 103.56C1181.08 103.56 1178.84 105.18 1178.84 107.34Z" fill="#FF7058"/>
<path fill-rule="evenodd" clip-rule="evenodd" d="M1029.64 56.04C1029.64 52.8 1033.37 50.1 1037.84 50.1C1042.69 50.1 1046.42 52.8 1046.05 56.04C1046.05 59.28 1042.32 61.98 1037.84 61.98C1033.37 61.98 1029.64 59.28 1029.64 56.04ZM1032.62 56.0401C1032.62 58.2001 1034.86 59.8201 1037.84 59.8201C1040.83 59.8201 1043.07 58.2001 1043.07 56.0401C1043.07 53.8801 1040.83 52.2601 1037.84 52.2601C1034.86 52.2601 1032.62 53.8801 1032.62 56.0401Z" fill="#FF7058"/>
<path fill-rule="evenodd" clip-rule="evenodd" d="M1149.02 138.426C1149.02 135.186 1152.75 132.486 1157.22 132.486C1161.7 132.486 1165.43 135.186 1165.43 138.426C1165.43 141.666 1161.7 144.366 1157.22 144.366C1152.75 144.366 1149.02 141.666 1149.02 138.426ZM1152 138.157C1152 140.317 1154.24 141.937 1157.22 141.937C1160.21 141.937 1162.45 140.317 1162.45 138.157C1162.45 135.997 1160.21 134.377 1157.22 134.377C1154.24 134.377 1152 135.997 1152 138.157Z" fill="#FF7058"/>
<path d="M401.036 592.8C401.036 592.8 -233.161 519.9 624.87 479.4C1482.9 438.9 1216.17 642.75 1121.04 339C1025.91 35.2498 1329.95 523.95 1231.09 298.5C1132.23 73.0498 1831.71 233.7 1341.14 63.5998C850.57 -106.5 1221.76 344.4 718.135 208.05C214.508 71.6998 283.523 -174 283.523 -174" stroke="#868686" stroke-width="1.11309" stroke-linecap="round" stroke-dasharray="5.57"/>
<path d="M1010.24 333.547H995.316C993.824 333.547 992.332 332.467 992.332 331.387C992.332 330.307 993.451 329.227 995.316 329.227H1010.24C1011.73 329.227 1013.22 330.307 1013.22 331.387C1012.85 332.737 1011.73 333.547 1010.24 333.547Z" fill="#CD807D"/>
<path d="M1038.96 301.417C1037.84 301.417 1037.1 300.877 1036.35 300.337L1029.64 290.617C1028.89 289.537 1029.64 288.457 1030.76 287.917C1032.25 287.377 1033.74 287.917 1034.49 288.727L1041.2 298.447C1042.32 299.257 1041.95 301.417 1038.96 301.417Z" fill="#CD807D"/>
<path d="M1017.7 371.617L1010.24 362.167C1009.49 361.087 1009.86 360.007 1011.36 359.467C1012.85 358.927 1014.34 359.197 1015.09 360.277L1022.55 369.727C1023.29 370.807 1022.92 371.887 1021.43 372.427C1020.31 372.967 1018.45 372.157 1017.7 371.617Z" fill="#84DBFF"/>
<path d="M997.554 361.087C1000.23 361.087 1002.4 359.516 1002.4 357.577C1002.4 355.639 1000.23 354.067 997.554 354.067C994.876 354.067 992.705 355.639 992.705 357.577C992.705 359.516 994.876 361.087 997.554 361.087Z" fill="#FFD15C"/>
<path d="M1005.02 310.057C1007.69 310.057 1009.87 308.486 1009.87 306.547C1009.87 304.609 1007.69 303.037 1005.02 303.037C1002.34 303.037 1000.17 304.609 1000.17 306.547C1000.17 308.486 1002.34 310.057 1005.02 310.057Z" fill="#84DBFF"/>
<path d="M1104.25 163.5C1106.11 164.85 1122.9 167.55 1135.96 158.1" stroke="black" stroke-width="1.11309" stroke-linecap="round"/>
</g>
<path opacity="0.84" d="M151.798 340.54C152.311 340.54 152.716 340.689 153.014 340.986C153.338 341.283 153.5 341.688 153.5 342.201V351.683C153.5 352.601 153.365 353.263 153.095 353.668C152.851 354.074 152.352 354.398 151.595 354.641C150.515 355.073 149.232 355.411 147.746 355.654C146.26 355.897 144.788 356.018 143.329 356.018C140.439 356.018 137.94 355.438 135.833 354.276C133.726 353.115 132.119 351.44 131.011 349.252C129.904 347.064 129.35 344.443 129.35 341.391C129.35 338.393 129.904 335.799 131.011 333.611C132.119 331.423 133.699 329.748 135.752 328.587C137.832 327.398 140.263 326.804 143.046 326.804C144.937 326.804 146.679 327.088 148.273 327.655C149.894 328.195 151.271 328.992 152.406 330.046C152.946 330.478 153.216 331.018 153.216 331.666C153.216 332.153 153.081 332.571 152.811 332.922C152.541 333.247 152.217 333.409 151.838 333.409C151.595 333.409 151.379 333.368 151.19 333.287C151.001 333.206 150.758 333.071 150.461 332.882C149.137 331.909 147.935 331.234 146.855 330.856C145.774 330.451 144.531 330.248 143.127 330.248C140.047 330.248 137.697 331.207 136.076 333.125C134.456 335.016 133.645 337.771 133.645 341.391C133.645 345.092 134.469 347.901 136.117 349.819C137.792 351.71 140.236 352.655 143.451 352.655C145.612 352.655 147.692 352.331 149.691 351.683V343.701H144.383C143.843 343.701 143.41 343.566 143.086 343.295C142.789 342.998 142.641 342.607 142.641 342.12C142.641 341.634 142.789 341.256 143.086 340.986C143.41 340.689 143.843 340.54 144.383 340.54H151.798ZM174.794 350.71C175.172 350.71 175.483 350.859 175.726 351.156C175.969 351.453 176.091 351.831 176.091 352.291C176.091 353.074 175.605 353.736 174.632 354.276C173.687 354.816 172.647 355.235 171.512 355.532C170.405 355.829 169.338 355.978 168.311 355.978C165.178 355.978 162.706 355.073 160.896 353.263C159.086 351.426 158.181 348.928 158.181 345.767C158.181 343.741 158.573 341.945 159.356 340.378C160.167 338.811 161.288 337.596 162.72 336.731C164.178 335.867 165.826 335.435 167.663 335.435C170.31 335.435 172.404 336.286 173.943 337.987C175.483 339.689 176.253 341.985 176.253 344.876C176.253 345.956 175.767 346.496 174.794 346.496H162.274C162.544 350.683 164.556 352.777 168.311 352.777C169.311 352.777 170.175 352.642 170.904 352.372C171.634 352.102 172.404 351.75 173.214 351.318C173.295 351.264 173.511 351.156 173.862 350.994C174.241 350.805 174.551 350.71 174.794 350.71ZM167.744 338.433C166.177 338.433 164.921 338.933 163.976 339.932C163.03 340.932 162.463 342.336 162.274 344.146H172.728C172.647 342.309 172.174 340.905 171.31 339.932C170.472 338.933 169.284 338.433 167.744 338.433ZM190.249 352.777C190.843 352.831 191.262 352.993 191.505 353.263C191.775 353.506 191.91 353.857 191.91 354.317C191.91 354.857 191.694 355.276 191.262 355.573C190.857 355.843 190.249 355.951 189.439 355.897L188.345 355.816C186.157 355.654 184.522 354.992 183.442 353.83C182.361 352.642 181.821 350.9 181.821 348.603V339.081H179.39C178.201 339.081 177.607 338.555 177.607 337.501C177.607 337.015 177.755 336.637 178.053 336.367C178.377 336.069 178.823 335.921 179.39 335.921H181.821V331.747C181.821 331.126 181.997 330.64 182.348 330.289C182.726 329.937 183.226 329.762 183.847 329.762C184.468 329.762 184.968 329.937 185.346 330.289C185.724 330.64 185.913 331.126 185.913 331.747V335.921H189.925C190.492 335.921 190.924 336.069 191.221 336.367C191.546 336.637 191.708 337.015 191.708 337.501C191.708 338.014 191.546 338.406 191.221 338.676C190.924 338.946 190.492 339.081 189.925 339.081H185.913V348.887C185.913 350.157 186.17 351.089 186.683 351.683C187.224 352.277 188.034 352.615 189.114 352.696L190.249 352.777ZM216.149 335.435C217.878 335.435 219.405 335.853 220.728 336.691C222.052 337.528 223.078 338.717 223.808 340.256C224.564 341.796 224.942 343.593 224.942 345.646C224.942 347.671 224.564 349.468 223.808 351.035C223.078 352.601 222.038 353.817 220.688 354.681C219.364 355.546 217.851 355.978 216.149 355.978C214.664 355.978 213.354 355.667 212.219 355.046C211.085 354.398 210.22 353.479 209.626 352.291V353.911C209.626 354.506 209.437 354.992 209.059 355.37C208.707 355.721 208.221 355.897 207.6 355.897C206.979 355.897 206.479 355.721 206.101 355.37C205.722 354.992 205.533 354.506 205.533 353.911V328.87C205.533 328.276 205.722 327.803 206.101 327.452C206.506 327.101 207.019 326.926 207.64 326.926C208.235 326.926 208.707 327.101 209.059 327.452C209.437 327.776 209.626 328.222 209.626 328.789V339.162C210.22 337.974 211.085 337.055 212.219 336.407C213.354 335.759 214.664 335.435 216.149 335.435ZM215.177 352.736C216.933 352.736 218.297 352.115 219.269 350.873C220.269 349.63 220.769 347.888 220.769 345.646C220.769 343.43 220.282 341.729 219.31 340.54C218.338 339.324 216.96 338.717 215.177 338.717C213.394 338.717 212.017 339.324 211.044 340.54C210.099 341.756 209.626 343.484 209.626 345.727C209.626 347.969 210.099 349.697 211.044 350.913C212.017 352.129 213.394 352.736 215.177 352.736ZM244.952 350.71C245.33 350.71 245.64 350.859 245.884 351.156C246.127 351.453 246.248 351.831 246.248 352.291C246.248 353.074 245.762 353.736 244.789 354.276C243.844 354.816 242.804 355.235 241.669 355.532C240.562 355.829 239.495 355.978 238.468 355.978C235.335 355.978 232.863 355.073 231.053 353.263C229.244 351.426 228.339 348.928 228.339 345.767C228.339 343.741 228.73 341.945 229.514 340.378C230.324 338.811 231.445 337.596 232.877 336.731C234.335 335.867 235.983 335.435 237.82 335.435C240.467 335.435 242.561 336.286 244.101 337.987C245.64 339.689 246.41 341.985 246.41 344.876C246.41 345.956 245.924 346.496 244.952 346.496H232.431C232.701 350.683 234.714 352.777 238.468 352.777C239.468 352.777 240.332 352.642 241.062 352.372C241.791 352.102 242.561 351.75 243.371 351.318C243.452 351.264 243.668 351.156 244.02 350.994C244.398 350.805 244.708 350.71 244.952 350.71ZM237.901 338.433C236.334 338.433 235.078 338.933 234.133 339.932C233.187 340.932 232.62 342.336 232.431 344.146H242.885C242.804 342.309 242.331 340.905 241.467 339.932C240.629 338.933 239.441 338.433 237.901 338.433ZM257.808 355.978C255.053 355.978 252.797 355.411 251.042 354.276C250.555 353.979 250.204 353.668 249.988 353.344C249.799 353.02 249.704 352.655 249.704 352.25C249.704 351.818 249.826 351.453 250.069 351.156C250.312 350.859 250.623 350.71 251.001 350.71C251.352 350.71 251.906 350.927 252.662 351.359C253.473 351.791 254.256 352.142 255.012 352.412C255.796 352.682 256.768 352.817 257.93 352.817C259.226 352.817 260.239 352.588 260.969 352.129C261.698 351.669 262.063 351.021 262.063 350.184C262.063 349.643 261.914 349.211 261.617 348.887C261.347 348.563 260.861 348.279 260.158 348.036C259.456 347.766 258.416 347.482 257.038 347.185C254.661 346.672 252.946 345.983 251.892 345.119C250.866 344.227 250.353 343.025 250.353 341.513C250.353 340.351 250.69 339.311 251.366 338.393C252.041 337.447 252.973 336.718 254.162 336.204C255.35 335.691 256.701 335.435 258.213 335.435C259.294 335.435 260.347 335.583 261.374 335.88C262.4 336.15 263.305 336.556 264.089 337.096C264.98 337.69 265.426 338.379 265.426 339.162C265.426 339.595 265.291 339.959 265.021 340.256C264.778 340.554 264.48 340.702 264.129 340.702C263.886 340.702 263.643 340.648 263.4 340.54C263.157 340.432 262.833 340.256 262.427 340.013C261.698 339.581 261.009 339.243 260.361 339C259.74 338.757 258.956 338.636 258.011 338.636C256.876 338.636 255.958 338.879 255.256 339.365C254.58 339.851 254.243 340.513 254.243 341.35C254.243 342.107 254.553 342.701 255.175 343.133C255.823 343.538 257.025 343.93 258.781 344.308C260.591 344.687 262.009 345.119 263.035 345.605C264.062 346.091 264.791 346.699 265.223 347.428C265.683 348.131 265.912 349.036 265.912 350.143C265.912 351.899 265.169 353.317 263.684 354.398C262.225 355.451 260.266 355.978 257.808 355.978ZM279.954 352.777C280.548 352.831 280.967 352.993 281.21 353.263C281.48 353.506 281.615 353.857 281.615 354.317C281.615 354.857 281.399 355.276 280.967 355.573C280.562 355.843 279.954 355.951 279.143 355.897L278.049 355.816C275.861 355.654 274.227 354.992 273.146 353.83C272.066 352.642 271.526 350.9 271.526 348.603V339.081H269.095C267.906 339.081 267.312 338.555 267.312 337.501C267.312 337.015 267.46 336.637 267.757 336.367C268.082 336.069 268.527 335.921 269.095 335.921H271.526V331.747C271.526 331.126 271.701 330.64 272.052 330.289C272.431 329.937 272.93 329.762 273.552 329.762C274.173 329.762 274.673 329.937 275.051 330.289C275.429 330.64 275.618 331.126 275.618 331.747V335.921H279.63C280.197 335.921 280.629 336.069 280.926 336.367C281.25 336.637 281.412 337.015 281.412 337.501C281.412 338.014 281.25 338.406 280.926 338.676C280.629 338.946 280.197 339.081 279.63 339.081H275.618V348.887C275.618 350.157 275.875 351.089 276.388 351.683C276.928 352.277 277.739 352.615 278.819 352.696L279.954 352.777ZM302.126 355.978C299.371 355.978 297.116 355.411 295.36 354.276C294.873 353.979 294.522 353.668 294.306 353.344C294.117 353.02 294.023 352.655 294.023 352.25C294.023 351.818 294.144 351.453 294.387 351.156C294.63 350.859 294.941 350.71 295.319 350.71C295.67 350.71 296.224 350.927 296.98 351.359C297.791 351.791 298.574 352.142 299.331 352.412C300.114 352.682 301.086 352.817 302.248 352.817C303.545 352.817 304.558 352.588 305.287 352.129C306.016 351.669 306.381 351.021 306.381 350.184C306.381 349.643 306.232 349.211 305.935 348.887C305.665 348.563 305.179 348.279 304.477 348.036C303.774 347.766 302.734 347.482 301.357 347.185C298.979 346.672 297.264 345.983 296.211 345.119C295.184 344.227 294.671 343.025 294.671 341.513C294.671 340.351 295.009 339.311 295.684 338.393C296.359 337.447 297.291 336.718 298.48 336.204C299.668 335.691 301.019 335.435 302.532 335.435C303.612 335.435 304.666 335.583 305.692 335.88C306.719 336.15 307.624 336.556 308.407 337.096C309.298 337.69 309.744 338.379 309.744 339.162C309.744 339.595 309.609 339.959 309.339 340.256C309.096 340.554 308.799 340.702 308.447 340.702C308.204 340.702 307.961 340.648 307.718 340.54C307.475 340.432 307.151 340.256 306.746 340.013C306.016 339.581 305.327 339.243 304.679 339C304.058 338.757 303.275 338.636 302.329 338.636C301.195 338.636 300.276 338.879 299.574 339.365C298.898 339.851 298.561 340.513 298.561 341.35C298.561 342.107 298.871 342.701 299.493 343.133C300.141 343.538 301.343 343.93 303.099 344.308C304.909 344.687 306.327 345.119 307.353 345.605C308.38 346.091 309.109 346.699 309.542 347.428C310.001 348.131 310.23 349.036 310.23 350.143C310.23 351.899 309.487 353.317 308.002 354.398C306.543 355.451 304.585 355.978 302.126 355.978ZM325.483 335.435C330.183 335.435 332.533 338.095 332.533 343.417V353.952C332.533 354.546 332.344 355.019 331.966 355.37C331.588 355.721 331.088 355.897 330.467 355.897C329.845 355.897 329.346 355.721 328.967 355.37C328.616 355.019 328.441 354.546 328.441 353.952V343.457C328.441 341.837 328.103 340.648 327.428 339.892C326.779 339.135 325.753 338.757 324.348 338.757C322.7 338.757 321.377 339.27 320.377 340.297C319.378 341.323 318.878 342.701 318.878 344.43V353.952C318.878 354.546 318.689 355.019 318.311 355.37C317.96 355.721 317.473 355.897 316.852 355.897C316.231 355.897 315.731 355.721 315.353 355.37C314.975 355.019 314.786 354.546 314.786 353.952V328.87C314.786 328.276 314.975 327.803 315.353 327.452C315.758 327.101 316.271 326.926 316.893 326.926C317.487 326.926 317.96 327.101 318.311 327.452C318.689 327.776 318.878 328.222 318.878 328.789V338.919C319.553 337.785 320.458 336.92 321.593 336.326C322.727 335.732 324.024 335.435 325.483 335.435ZM340.198 355.897C339.604 355.897 339.104 355.735 338.699 355.411C338.321 355.087 338.132 354.6 338.132 353.952V337.501C338.132 336.853 338.321 336.367 338.699 336.042C339.104 335.691 339.604 335.516 340.198 335.516C340.793 335.516 341.279 335.691 341.657 336.042C342.035 336.367 342.224 336.853 342.224 337.501V353.952C342.224 354.6 342.035 355.087 341.657 355.411C341.279 355.735 340.793 355.897 340.198 355.897ZM340.198 331.545C339.415 331.545 338.794 331.329 338.334 330.896C337.875 330.464 337.646 329.897 337.646 329.195C337.646 328.492 337.875 327.938 338.334 327.533C338.794 327.101 339.415 326.885 340.198 326.885C340.955 326.885 341.562 327.101 342.022 327.533C342.508 327.938 342.751 328.492 342.751 329.195C342.751 329.897 342.521 330.464 342.062 330.896C341.603 331.329 340.982 331.545 340.198 331.545ZM358.318 335.516C359.615 335.435 360.263 335.988 360.263 337.177C360.263 337.771 360.114 338.217 359.817 338.514C359.52 338.811 359.007 338.987 358.278 339.041L357.062 339.162C355.36 339.324 354.091 339.919 353.253 340.945C352.443 341.972 352.038 343.214 352.038 344.673V353.952C352.038 354.6 351.848 355.087 351.47 355.411C351.092 355.735 350.606 355.897 350.012 355.897C349.417 355.897 348.918 355.735 348.512 355.411C348.134 355.087 347.945 354.6 347.945 353.952V337.461C347.945 336.839 348.134 336.367 348.512 336.042C348.918 335.691 349.417 335.516 350.012 335.516C350.552 335.516 350.998 335.691 351.349 336.042C351.727 336.367 351.916 336.826 351.916 337.42V339.365C352.456 338.176 353.24 337.271 354.266 336.65C355.293 336.029 356.454 335.664 357.751 335.556L358.318 335.516ZM374.169 352.777C374.764 352.831 375.182 352.993 375.426 353.263C375.696 353.506 375.831 353.857 375.831 354.317C375.831 354.857 375.615 355.276 375.182 355.573C374.777 355.843 374.169 355.951 373.359 355.897L372.265 355.816C370.077 355.654 368.443 354.992 367.362 353.83C366.282 352.642 365.741 350.9 365.741 348.603V339.081H363.31C362.122 339.081 361.527 338.555 361.527 337.501C361.527 337.015 361.676 336.637 361.973 336.367C362.297 336.069 362.743 335.921 363.31 335.921H365.741V331.747C365.741 331.126 365.917 330.64 366.268 330.289C366.646 329.937 367.146 329.762 367.767 329.762C368.389 329.762 368.888 329.937 369.267 330.289C369.645 330.64 369.834 331.126 369.834 331.747V335.921H373.845C374.413 335.921 374.845 336.069 375.142 336.367C375.466 336.637 375.628 337.015 375.628 337.501C375.628 338.014 375.466 338.406 375.142 338.676C374.845 338.946 374.413 339.081 373.845 339.081H369.834V348.887C369.834 350.157 370.09 351.089 370.604 351.683C371.144 352.277 371.954 352.615 373.035 352.696L374.169 352.777ZM385.658 355.978C382.903 355.978 380.647 355.411 378.892 354.276C378.405 353.979 378.054 353.668 377.838 353.344C377.649 353.02 377.554 352.655 377.554 352.25C377.554 351.818 377.676 351.453 377.919 351.156C378.162 350.859 378.473 350.71 378.851 350.71C379.202 350.71 379.756 350.927 380.512 351.359C381.323 351.791 382.106 352.142 382.862 352.412C383.646 352.682 384.618 352.817 385.78 352.817C387.076 352.817 388.089 352.588 388.819 352.129C389.548 351.669 389.913 351.021 389.913 350.184C389.913 349.643 389.764 349.211 389.467 348.887C389.197 348.563 388.711 348.279 388.008 348.036C387.306 347.766 386.266 347.482 384.888 347.185C382.511 346.672 380.796 345.983 379.742 345.119C378.716 344.227 378.203 343.025 378.203 341.513C378.203 340.351 378.54 339.311 379.216 338.393C379.891 337.447 380.823 336.718 382.012 336.204C383.2 335.691 384.551 335.435 386.063 335.435C387.144 335.435 388.198 335.583 389.224 335.88C390.251 336.15 391.155 336.556 391.939 337.096C392.83 337.69 393.276 338.379 393.276 339.162C393.276 339.595 393.141 339.959 392.871 340.256C392.628 340.554 392.331 340.702 391.979 340.702C391.736 340.702 391.493 340.648 391.25 340.54C391.007 340.432 390.683 340.256 390.278 340.013C389.548 339.581 388.859 339.243 388.211 339C387.59 338.757 386.806 338.636 385.861 338.636C384.726 338.636 383.808 338.879 383.106 339.365C382.43 339.851 382.093 340.513 382.093 341.35C382.093 342.107 382.403 342.701 383.025 343.133C383.673 343.538 384.875 343.93 386.631 344.308C388.441 344.687 389.859 345.119 390.885 345.605C391.912 346.091 392.641 346.699 393.073 347.428C393.533 348.131 393.762 349.036 393.762 350.143C393.762 351.899 393.019 353.317 391.534 354.398C390.075 355.451 388.116 355.978 385.658 355.978ZM417.308 335.435C419.928 335.435 421.873 336.096 423.143 337.42C424.439 338.744 425.088 340.756 425.088 343.457V353.952C425.088 354.573 424.912 355.06 424.561 355.411C424.21 355.735 423.723 355.897 423.102 355.897C422.508 355.897 422.035 355.721 421.684 355.37C421.333 355.019 421.157 354.546 421.157 353.952V352.453C420.644 353.587 419.874 354.465 418.848 355.087C417.848 355.681 416.673 355.978 415.322 355.978C414.026 355.978 412.837 355.721 411.757 355.208C410.703 354.668 409.866 353.938 409.244 353.02C408.623 352.102 408.312 351.062 408.312 349.9C408.285 348.441 408.65 347.307 409.407 346.496C410.163 345.659 411.392 345.065 413.094 344.714C414.796 344.335 417.159 344.146 420.185 344.146H421.117V342.971C421.117 341.458 420.806 340.364 420.185 339.689C419.563 339.014 418.564 338.676 417.186 338.676C416.241 338.676 415.349 338.798 414.512 339.041C413.675 339.284 412.756 339.635 411.757 340.094C411.027 340.5 410.514 340.702 410.217 340.702C409.812 340.702 409.474 340.554 409.204 340.256C408.961 339.959 408.839 339.581 408.839 339.122C408.839 338.717 408.947 338.366 409.163 338.068C409.407 337.744 409.785 337.434 410.298 337.136C411.243 336.623 412.351 336.218 413.621 335.921C414.89 335.597 416.119 335.435 417.308 335.435ZM416.052 352.939C417.537 352.939 418.753 352.439 419.698 351.44C420.644 350.413 421.117 349.103 421.117 347.509V346.456H420.387C418.28 346.456 416.659 346.55 415.525 346.74C414.39 346.929 413.58 347.253 413.094 347.712C412.608 348.144 412.364 348.779 412.364 349.616C412.364 350.589 412.716 351.386 413.418 352.007C414.12 352.628 414.998 352.939 416.052 352.939ZM441.059 335.516C442.355 335.435 443.003 335.988 443.003 337.177C443.003 337.771 442.855 338.217 442.558 338.514C442.261 338.811 441.747 338.987 441.018 339.041L439.802 339.162C438.101 339.324 436.831 339.919 435.994 340.945C435.183 341.972 434.778 343.214 434.778 344.673V353.952C434.778 354.6 434.589 355.087 434.211 355.411C433.833 355.735 433.346 355.897 432.752 355.897C432.158 355.897 431.658 355.735 431.253 355.411C430.875 355.087 430.686 354.6 430.686 353.952V337.461C430.686 336.839 430.875 336.367 431.253 336.042C431.658 335.691 432.158 335.516 432.752 335.516C433.292 335.516 433.738 335.691 434.089 336.042C434.467 336.367 434.656 336.826 434.656 337.42V339.365C435.197 338.176 435.98 337.271 437.007 336.65C438.033 336.029 439.195 335.664 440.491 335.556L441.059 335.516ZM453.719 355.978C451.774 355.978 450.058 355.559 448.573 354.722C447.114 353.884 445.979 352.696 445.169 351.156C444.386 349.589 443.994 347.78 443.994 345.727C443.994 343.647 444.386 341.837 445.169 340.297C445.979 338.73 447.114 337.528 448.573 336.691C450.058 335.853 451.774 335.435 453.719 335.435C455.664 335.435 457.365 335.853 458.824 336.691C460.31 337.528 461.444 338.73 462.228 340.297C463.038 341.837 463.443 343.647 463.443 345.727C463.443 347.78 463.038 349.589 462.228 351.156C461.444 352.696 460.31 353.884 458.824 354.722C457.365 355.559 455.664 355.978 453.719 355.978ZM453.719 352.736C455.529 352.736 456.906 352.142 457.852 350.954C458.824 349.765 459.31 348.023 459.31 345.727C459.31 343.457 458.824 341.729 457.852 340.54C456.879 339.324 455.502 338.717 453.719 338.717C451.936 338.717 450.558 339.324 449.586 340.54C448.613 341.729 448.127 343.457 448.127 345.727C448.127 348.023 448.6 349.765 449.545 350.954C450.518 352.142 451.909 352.736 453.719 352.736ZM483.316 335.516C483.938 335.516 484.424 335.691 484.775 336.042C485.153 336.394 485.342 336.88 485.342 337.501V353.993C485.342 354.56 485.153 355.019 484.775 355.37C484.397 355.721 483.897 355.897 483.276 355.897C482.708 355.897 482.249 355.735 481.898 355.411C481.547 355.06 481.371 354.6 481.371 354.033V352.493C480.75 353.628 479.886 354.492 478.778 355.087C477.698 355.681 476.482 355.978 475.131 355.978C470.323 355.978 467.919 353.331 467.919 348.036V337.501C467.919 336.88 468.094 336.394 468.446 336.042C468.824 335.691 469.337 335.516 469.985 335.516C470.607 335.516 471.093 335.691 471.444 336.042C471.822 336.394 472.011 336.88 472.011 337.501V347.996C472.011 349.589 472.335 350.764 472.984 351.521C473.632 352.277 474.632 352.655 475.982 352.655C477.576 352.655 478.846 352.142 479.791 351.116C480.764 350.089 481.25 348.725 481.25 347.023V337.501C481.25 336.907 481.439 336.434 481.817 336.083C482.195 335.705 482.695 335.516 483.316 335.516ZM501.726 335.435C506.453 335.435 508.817 338.095 508.817 343.417V353.952C508.817 354.573 508.628 355.06 508.249 355.411C507.898 355.735 507.398 355.897 506.75 355.897C506.129 355.897 505.629 355.721 505.251 355.37C504.9 355.019 504.724 354.546 504.724 353.952V343.62C504.724 341.945 504.386 340.716 503.711 339.932C503.063 339.149 502.036 338.757 500.632 338.757C498.984 338.757 497.66 339.27 496.661 340.297C495.661 341.323 495.162 342.701 495.162 344.43V353.952C495.162 354.546 494.972 355.019 494.594 355.37C494.243 355.721 493.757 355.897 493.136 355.897C492.514 355.897 492.015 355.721 491.636 355.37C491.258 355.019 491.069 354.546 491.069 353.952V337.461C491.069 336.893 491.258 336.434 491.636 336.083C492.042 335.705 492.541 335.516 493.136 335.516C493.73 335.516 494.203 335.691 494.554 336.042C494.905 336.394 495.081 336.853 495.081 337.42V339.081C495.729 337.893 496.634 336.988 497.795 336.367C498.957 335.745 500.267 335.435 501.726 335.435ZM530.583 326.926C531.204 326.926 531.704 327.101 532.082 327.452C532.46 327.803 532.649 328.276 532.649 328.87V353.911C532.649 354.533 532.46 355.019 532.082 355.37C531.731 355.721 531.244 355.897 530.623 355.897C530.002 355.897 529.502 355.721 529.124 355.37C528.773 355.019 528.597 354.533 528.597 353.911V352.291C528.003 353.479 527.138 354.398 526.004 355.046C524.869 355.667 523.559 355.978 522.073 355.978C520.372 355.978 518.845 355.546 517.495 354.681C516.171 353.817 515.131 352.601 514.375 351.035C513.645 349.468 513.281 347.671 513.281 345.646C513.281 343.593 513.645 341.796 514.375 340.256C515.131 338.717 516.171 337.528 517.495 336.691C518.818 335.853 520.345 335.435 522.073 335.435C523.559 335.435 524.856 335.759 525.963 336.407C527.098 337.028 527.962 337.92 528.557 339.081V328.789C528.557 328.222 528.732 327.776 529.083 327.452C529.462 327.101 529.961 326.926 530.583 326.926ZM523.046 352.736C524.802 352.736 526.166 352.129 527.138 350.913C528.111 349.697 528.597 347.969 528.597 345.727C528.597 343.484 528.111 341.756 527.138 340.54C526.193 339.324 524.829 338.717 523.046 338.717C521.263 338.717 519.872 339.324 518.872 340.54C517.9 341.729 517.414 343.43 517.414 345.646C517.414 347.861 517.913 349.603 518.913 350.873C519.912 352.115 521.29 352.736 523.046 352.736ZM563.099 336.731C563.261 336.326 563.491 336.029 563.788 335.84C564.112 335.651 564.45 335.556 564.801 335.556C565.314 335.556 565.76 335.732 566.138 336.083C566.543 336.434 566.746 336.853 566.746 337.339C566.746 337.609 566.692 337.866 566.584 338.109L555.319 362.015C555.157 362.394 554.914 362.677 554.59 362.866C554.293 363.082 553.969 363.19 553.618 363.19C553.131 363.19 552.686 363.028 552.28 362.704C551.902 362.38 551.713 361.975 551.713 361.489C551.713 361.273 551.781 361.002 551.916 360.678L554.712 354.722L546.891 338.109C546.783 337.893 546.729 337.65 546.729 337.38C546.729 336.866 546.945 336.434 547.378 336.083C547.81 335.732 548.296 335.556 548.836 335.556C549.647 335.556 550.227 335.934 550.579 336.691L556.859 350.629L563.099 336.731ZM578.403 355.978C576.458 355.978 574.743 355.559 573.257 354.722C571.798 353.884 570.664 352.696 569.854 351.156C569.07 349.589 568.678 347.78 568.678 345.727C568.678 343.647 569.07 341.837 569.854 340.297C570.664 338.73 571.798 337.528 573.257 336.691C574.743 335.853 576.458 335.435 578.403 335.435C580.348 335.435 582.05 335.853 583.509 336.691C584.994 337.528 586.129 338.73 586.912 340.297C587.723 341.837 588.128 343.647 588.128 345.727C588.128 347.78 587.723 349.589 586.912 351.156C586.129 352.696 584.994 353.884 583.509 354.722C582.05 355.559 580.348 355.978 578.403 355.978ZM578.403 352.736C580.213 352.736 581.591 352.142 582.536 350.954C583.509 349.765 583.995 348.023 583.995 345.727C583.995 343.457 583.509 341.729 582.536 340.54C581.564 339.324 580.186 338.717 578.403 338.717C576.62 338.717 575.243 339.324 574.27 340.54C573.298 341.729 572.811 343.457 572.811 345.727C572.811 348.023 573.284 349.765 574.23 350.954C575.202 352.142 576.593 352.736 578.403 352.736ZM608.001 335.516C608.622 335.516 609.108 335.691 609.459 336.042C609.838 336.394 610.027 336.88 610.027 337.501V353.993C610.027 354.56 609.838 355.019 609.459 355.37C609.081 355.721 608.581 355.897 607.96 355.897C607.393 355.897 606.934 355.735 606.583 355.411C606.231 355.06 606.056 354.6 606.056 354.033V352.493C605.434 353.628 604.57 354.492 603.463 355.087C602.382 355.681 601.166 355.978 599.816 355.978C595.007 355.978 592.603 353.331 592.603 348.036V337.501C592.603 336.88 592.779 336.394 593.13 336.042C593.508 335.691 594.021 335.516 594.67 335.516C595.291 335.516 595.777 335.691 596.128 336.042C596.507 336.394 596.696 336.88 596.696 337.501V347.996C596.696 349.589 597.02 350.764 597.668 351.521C598.317 352.277 599.316 352.655 600.667 352.655C602.26 352.655 603.53 352.142 604.475 351.116C605.448 350.089 605.934 348.725 605.934 347.023V337.501C605.934 336.907 606.123 336.434 606.501 336.083C606.88 335.705 607.379 335.516 608.001 335.516ZM617.658 350.67C618.468 350.67 619.103 350.967 619.562 351.561C620.049 352.156 620.292 353.034 620.292 354.195C620.292 356.491 619.522 358.477 617.982 360.151C617.658 360.476 617.307 360.638 616.929 360.638C616.577 360.638 616.28 360.516 616.037 360.273C615.794 360.057 615.672 359.787 615.672 359.463C615.672 359.193 615.794 358.909 616.037 358.612C616.794 357.828 617.28 356.896 617.496 355.816C616.821 355.762 616.253 355.505 615.794 355.046C615.362 354.587 615.146 354.006 615.146 353.304C615.146 352.547 615.389 351.926 615.875 351.44C616.361 350.927 616.956 350.67 617.658 350.67ZM138.305 411.978C136.387 411.978 134.699 411.559 133.24 410.722C131.808 409.884 130.687 408.696 129.877 407.156C129.094 405.616 128.702 403.834 128.702 401.808C128.702 399.755 129.107 397.945 129.917 396.378C130.755 394.811 131.916 393.596 133.402 392.731C134.888 391.867 136.59 391.435 138.508 391.435C139.534 391.435 140.561 391.583 141.587 391.88C142.641 392.177 143.572 392.583 144.383 393.096C145.247 393.69 145.679 394.379 145.679 395.162C145.679 395.622 145.558 396.013 145.315 396.337C145.072 396.635 144.761 396.783 144.383 396.783C144.14 396.783 143.897 396.729 143.654 396.621C143.41 396.486 143.1 396.297 142.722 396.054C142.046 395.622 141.411 395.297 140.817 395.081C140.25 394.838 139.561 394.717 138.751 394.717C136.914 394.717 135.482 395.338 134.456 396.581C133.456 397.823 132.956 399.552 132.956 401.767C132.956 403.982 133.456 405.697 134.456 406.913C135.455 408.102 136.873 408.696 138.71 408.696C139.521 408.696 140.236 408.574 140.858 408.331C141.479 408.088 142.114 407.764 142.762 407.359C143.059 407.17 143.356 407.008 143.654 406.873C143.951 406.737 144.221 406.67 144.464 406.67C144.842 406.67 145.153 406.832 145.396 407.156C145.639 407.453 145.761 407.831 145.761 408.291C145.761 408.669 145.652 409.02 145.436 409.344C145.247 409.641 144.91 409.952 144.423 410.276C143.613 410.816 142.668 411.235 141.587 411.532C140.506 411.829 139.412 411.978 138.305 411.978ZM160.121 391.435C164.821 391.435 167.171 394.095 167.171 399.417V409.952C167.171 410.546 166.982 411.019 166.604 411.37C166.225 411.721 165.726 411.897 165.104 411.897C164.483 411.897 163.983 411.721 163.605 411.37C163.254 411.019 163.078 410.546 163.078 409.952V399.457C163.078 397.837 162.741 396.648 162.065 395.892C161.417 395.135 160.391 394.757 158.986 394.757C157.338 394.757 156.015 395.27 155.015 396.297C154.016 397.323 153.516 398.701 153.516 400.43V409.952C153.516 410.546 153.327 411.019 152.949 411.37C152.597 411.721 152.111 411.897 151.49 411.897C150.869 411.897 150.369 411.721 149.991 411.37C149.613 411.019 149.423 410.546 149.423 409.952V384.87C149.423 384.276 149.613 383.803 149.991 383.452C150.396 383.101 150.909 382.926 151.53 382.926C152.125 382.926 152.597 383.101 152.949 383.452C153.327 383.776 153.516 384.222 153.516 384.789V394.919C154.191 393.785 155.096 392.92 156.231 392.326C157.365 391.732 158.662 391.435 160.121 391.435ZM188.248 406.71C188.626 406.71 188.937 406.859 189.18 407.156C189.423 407.453 189.545 407.831 189.545 408.291C189.545 409.074 189.058 409.736 188.086 410.276C187.141 410.816 186.101 411.235 184.966 411.532C183.858 411.829 182.791 411.978 181.765 411.978C178.631 411.978 176.16 411.073 174.35 409.263C172.54 407.426 171.635 404.928 171.635 401.767C171.635 399.741 172.027 397.945 172.81 396.378C173.621 394.811 174.742 393.596 176.173 392.731C177.632 391.867 179.28 391.435 181.117 391.435C183.764 391.435 185.857 392.286 187.397 393.987C188.937 395.689 189.707 397.985 189.707 400.876C189.707 401.956 189.221 402.496 188.248 402.496H175.728C175.998 406.683 178.01 408.777 181.765 408.777C182.764 408.777 183.629 408.642 184.358 408.372C185.088 408.102 185.857 407.75 186.668 407.318C186.749 407.264 186.965 407.156 187.316 406.994C187.694 406.805 188.005 406.71 188.248 406.71ZM181.198 394.433C179.631 394.433 178.375 394.933 177.429 395.932C176.484 396.932 175.917 398.336 175.728 400.146H186.182C186.101 398.309 185.628 396.905 184.763 395.932C183.926 394.933 182.737 394.433 181.198 394.433ZM202.685 411.978C200.767 411.978 199.079 411.559 197.62 410.722C196.188 409.884 195.067 408.696 194.257 407.156C193.474 405.616 193.082 403.834 193.082 401.808C193.082 399.755 193.487 397.945 194.297 396.378C195.135 394.811 196.296 393.596 197.782 392.731C199.268 391.867 200.97 391.435 202.888 391.435C203.914 391.435 204.941 391.583 205.967 391.88C207.021 392.177 207.953 392.583 208.763 393.096C209.627 393.69 210.06 394.379 210.06 395.162C210.06 395.622 209.938 396.013 209.695 396.337C209.452 396.635 209.141 396.783 208.763 396.783C208.52 396.783 208.277 396.729 208.034 396.621C207.79 396.486 207.48 396.297 207.102 396.054C206.426 395.622 205.791 395.297 205.197 395.081C204.63 394.838 203.941 394.717 203.131 394.717C201.294 394.717 199.862 395.338 198.836 396.581C197.836 397.823 197.336 399.552 197.336 401.767C197.336 403.982 197.836 405.697 198.836 406.913C199.835 408.102 201.253 408.696 203.09 408.696C203.901 408.696 204.616 408.574 205.238 408.331C205.859 408.088 206.494 407.764 207.142 407.359C207.439 407.17 207.736 407.008 208.034 406.873C208.331 406.737 208.601 406.67 208.844 406.67C209.222 406.67 209.533 406.832 209.776 407.156C210.019 407.453 210.141 407.831 210.141 408.291C210.141 408.669 210.033 409.02 209.816 409.344C209.627 409.641 209.29 409.952 208.803 410.276C207.993 410.816 207.048 411.235 205.967 411.532C204.887 411.829 203.793 411.978 202.685 411.978ZM230.416 408.493C230.903 408.898 231.146 409.398 231.146 409.993C231.146 410.506 230.97 410.951 230.619 411.33C230.268 411.708 229.849 411.897 229.363 411.897C228.85 411.897 228.39 411.708 227.985 411.33L217.896 402.415V409.911C217.896 410.56 217.707 411.06 217.329 411.411C216.95 411.735 216.464 411.897 215.87 411.897C215.276 411.897 214.776 411.735 214.371 411.411C213.993 411.06 213.803 410.56 213.803 409.911V384.911C213.803 384.263 213.993 383.776 214.371 383.452C214.776 383.101 215.276 382.926 215.87 382.926C216.464 382.926 216.95 383.101 217.329 383.452C217.707 383.776 217.896 384.263 217.896 384.911V400.795L227.134 392.164C227.594 391.759 228.039 391.556 228.472 391.556C228.985 391.556 229.43 391.745 229.809 392.123C230.187 392.502 230.376 392.947 230.376 393.461C230.376 393.974 230.146 394.447 229.687 394.879L222.475 401.483L230.416 408.493ZM254.01 411.978C252.065 411.978 250.35 411.559 248.864 410.722C247.405 409.884 246.271 408.696 245.46 407.156C244.677 405.589 244.285 403.78 244.285 401.727C244.285 399.647 244.677 397.837 245.46 396.297C246.271 394.73 247.405 393.528 248.864 392.691C250.35 391.853 252.065 391.435 254.01 391.435C255.955 391.435 257.657 391.853 259.115 392.691C260.601 393.528 261.736 394.73 262.519 396.297C263.329 397.837 263.735 399.647 263.735 401.727C263.735 403.78 263.329 405.589 262.519 407.156C261.736 408.696 260.601 409.884 259.115 410.722C257.657 411.559 255.955 411.978 254.01 411.978ZM254.01 408.736C255.82 408.736 257.197 408.142 258.143 406.954C259.115 405.765 259.602 404.023 259.602 401.727C259.602 399.457 259.115 397.729 258.143 396.54C257.17 395.324 255.793 394.717 254.01 394.717C252.227 394.717 250.849 395.324 249.877 396.54C248.904 397.729 248.418 399.457 248.418 401.727C248.418 404.023 248.891 405.765 249.836 406.954C250.809 408.142 252.2 408.736 254.01 408.736ZM283.607 391.516C284.229 391.516 284.715 391.691 285.066 392.042C285.444 392.394 285.633 392.88 285.633 393.501V409.993C285.633 410.56 285.444 411.019 285.066 411.37C284.688 411.721 284.188 411.897 283.567 411.897C283 411.897 282.54 411.735 282.189 411.411C281.838 411.06 281.663 410.6 281.663 410.033V408.493C281.041 409.628 280.177 410.492 279.069 411.087C277.989 411.681 276.773 411.978 275.423 411.978C270.614 411.978 268.21 409.331 268.21 404.036V393.501C268.21 392.88 268.386 392.394 268.737 392.042C269.115 391.691 269.628 391.516 270.277 391.516C270.898 391.516 271.384 391.691 271.735 392.042C272.113 392.394 272.303 392.88 272.303 393.501V403.996C272.303 405.589 272.627 406.764 273.275 407.521C273.923 408.277 274.923 408.655 276.273 408.655C277.867 408.655 279.137 408.142 280.082 407.116C281.055 406.089 281.541 404.725 281.541 403.023V393.501C281.541 392.907 281.73 392.434 282.108 392.083C282.486 391.705 282.986 391.516 283.607 391.516ZM301.044 408.777C301.639 408.831 302.057 408.993 302.301 409.263C302.571 409.506 302.706 409.857 302.706 410.317C302.706 410.857 302.49 411.276 302.057 411.573C301.652 411.843 301.044 411.951 300.234 411.897L299.14 411.816C296.952 411.654 295.318 410.992 294.237 409.83C293.157 408.642 292.616 406.9 292.616 404.603V395.081H290.185C288.997 395.081 288.402 394.555 288.402 393.501C288.402 393.015 288.551 392.637 288.848 392.367C289.172 392.069 289.618 391.921 290.185 391.921H292.616V387.747C292.616 387.126 292.792 386.64 293.143 386.289C293.521 385.937 294.021 385.762 294.642 385.762C295.264 385.762 295.763 385.937 296.142 386.289C296.52 386.64 296.709 387.126 296.709 387.747V391.921H300.72C301.288 391.921 301.72 392.069 302.017 392.367C302.341 392.637 302.503 393.015 302.503 393.501C302.503 394.014 302.341 394.406 302.017 394.676C301.72 394.946 301.288 395.081 300.72 395.081H296.709V404.887C296.709 406.157 296.965 407.089 297.479 407.683C298.019 408.277 298.829 408.615 299.91 408.696L301.044 408.777ZM324.919 411.978C322.974 411.978 321.259 411.559 319.773 410.722C318.314 409.884 317.18 408.696 316.369 407.156C315.586 405.589 315.194 403.78 315.194 401.727C315.194 399.647 315.586 397.837 316.369 396.297C317.18 394.73 318.314 393.528 319.773 392.691C321.259 391.853 322.974 391.435 324.919 391.435C326.864 391.435 328.566 391.853 330.024 392.691C331.51 393.528 332.645 394.73 333.428 396.297C334.238 397.837 334.644 399.647 334.644 401.727C334.644 403.78 334.238 405.589 333.428 407.156C332.645 408.696 331.51 409.884 330.024 410.722C328.566 411.559 326.864 411.978 324.919 411.978ZM324.919 408.736C326.729 408.736 328.107 408.142 329.052 406.954C330.024 405.765 330.511 404.023 330.511 401.727C330.511 399.457 330.024 397.729 329.052 396.54C328.079 395.324 326.702 394.717 324.919 394.717C323.136 394.717 321.758 395.324 320.786 396.54C319.814 397.729 319.327 399.457 319.327 401.727C319.327 404.023 319.8 405.765 320.745 406.954C321.718 408.142 323.109 408.736 324.919 408.736ZM354.517 391.516C355.138 391.516 355.624 391.691 355.975 392.042C356.353 392.394 356.543 392.88 356.543 393.501V409.993C356.543 410.56 356.353 411.019 355.975 411.37C355.597 411.721 355.097 411.897 354.476 411.897C353.909 411.897 353.45 411.735 353.098 411.411C352.747 411.06 352.572 410.6 352.572 410.033V408.493C351.95 409.628 351.086 410.492 349.978 411.087C348.898 411.681 347.682 411.978 346.332 411.978C341.523 411.978 339.119 409.331 339.119 404.036V393.501C339.119 392.88 339.295 392.394 339.646 392.042C340.024 391.691 340.537 391.516 341.186 391.516C341.807 391.516 342.293 391.691 342.644 392.042C343.023 392.394 343.212 392.88 343.212 393.501V403.996C343.212 405.589 343.536 406.764 344.184 407.521C344.832 408.277 345.832 408.655 347.183 408.655C348.776 408.655 350.046 408.142 350.991 407.116C351.964 406.089 352.45 404.725 352.45 403.023V393.501C352.45 392.907 352.639 392.434 353.017 392.083C353.396 391.705 353.895 391.516 354.517 391.516ZM372.642 391.516C373.939 391.435 374.587 391.988 374.587 393.177C374.587 393.771 374.439 394.217 374.142 394.514C373.844 394.811 373.331 394.987 372.602 395.041L371.386 395.162C369.684 395.324 368.415 395.919 367.577 396.945C366.767 397.972 366.362 399.214 366.362 400.673V409.952C366.362 410.6 366.173 411.087 365.795 411.411C365.416 411.735 364.93 411.897 364.336 411.897C363.742 411.897 363.242 411.735 362.837 411.411C362.458 411.087 362.269 410.6 362.269 409.952V393.461C362.269 392.839 362.458 392.367 362.837 392.042C363.242 391.691 363.742 391.516 364.336 391.516C364.876 391.516 365.322 391.691 365.673 392.042C366.051 392.367 366.24 392.826 366.24 393.42V395.365C366.781 394.176 367.564 393.271 368.59 392.65C369.617 392.029 370.778 391.664 372.075 391.556L372.642 391.516ZM396.382 411.978C394.437 411.978 392.722 411.559 391.236 410.722C389.777 409.884 388.643 408.696 387.832 407.156C387.049 405.589 386.657 403.78 386.657 401.727C386.657 399.647 387.049 397.837 387.832 396.297C388.643 394.73 389.777 393.528 391.236 392.691C392.722 391.853 394.437 391.435 396.382 391.435C398.327 391.435 400.029 391.853 401.487 392.691C402.973 393.528 404.108 394.73 404.891 396.297C405.702 397.837 406.107 399.647 406.107 401.727C406.107 403.78 405.702 405.589 404.891 407.156C404.108 408.696 402.973 409.884 401.487 410.722C400.029 411.559 398.327 411.978 396.382 411.978ZM396.382 408.736C398.192 408.736 399.57 408.142 400.515 406.954C401.487 405.765 401.974 404.023 401.974 401.727C401.974 399.457 401.487 397.729 400.515 396.54C399.543 395.324 398.165 394.717 396.382 394.717C394.599 394.717 393.222 395.324 392.249 396.54C391.277 397.729 390.79 399.457 390.79 401.727C390.79 404.023 391.263 405.765 392.209 406.954C393.181 408.142 394.572 408.736 396.382 408.736ZM419.904 386.248C418.553 386.356 417.553 386.788 416.905 387.545C416.257 388.274 415.933 389.355 415.933 390.786V391.921H419.944C420.511 391.921 420.944 392.069 421.241 392.367C421.565 392.637 421.727 393.015 421.727 393.501C421.727 393.987 421.565 394.379 421.241 394.676C420.944 394.946 420.511 395.081 419.944 395.081H415.933V409.911C415.933 410.56 415.73 411.06 415.325 411.411C414.947 411.735 414.46 411.897 413.866 411.897C413.272 411.897 412.786 411.735 412.407 411.411C412.029 411.06 411.84 410.56 411.84 409.911V395.081H409.409C408.842 395.081 408.396 394.946 408.072 394.676C407.775 394.379 407.626 393.987 407.626 393.501C407.626 393.015 407.775 392.637 408.072 392.367C408.396 392.069 408.842 391.921 409.409 391.921H411.84V391.394C411.84 388.909 412.475 386.964 413.745 385.559C415.014 384.128 416.811 383.331 419.134 383.169L420.187 383.088C421.052 383.034 421.673 383.128 422.051 383.371C422.456 383.614 422.659 384.006 422.659 384.546C422.659 385.492 422.092 386.032 420.957 386.167L419.904 386.248ZM433.595 386.248C432.244 386.356 431.245 386.788 430.596 387.545C429.948 388.274 429.624 389.355 429.624 390.786V391.921H433.635C434.203 391.921 434.635 392.069 434.932 392.367C435.256 392.637 435.418 393.015 435.418 393.501C435.418 393.987 435.256 394.379 434.932 394.676C434.635 394.946 434.203 395.081 433.635 395.081H429.624V409.911C429.624 410.56 429.421 411.06 429.016 411.411C428.638 411.735 428.152 411.897 427.557 411.897C426.963 411.897 426.477 411.735 426.099 411.411C425.72 411.06 425.531 410.56 425.531 409.911V395.081H423.1C422.533 395.081 422.087 394.946 421.763 394.676C421.466 394.379 421.317 393.987 421.317 393.501C421.317 393.015 421.466 392.637 421.763 392.367C422.087 392.069 422.533 391.921 423.1 391.921H425.531V391.394C425.531 388.909 426.166 386.964 427.436 385.559C428.705 384.128 430.502 383.331 432.825 383.169L433.878 383.088C434.743 383.034 435.364 383.128 435.742 383.371C436.147 383.614 436.35 384.006 436.35 384.546C436.35 385.492 435.783 386.032 434.648 386.167L433.595 386.248ZM453.405 406.71C453.783 406.71 454.094 406.859 454.337 407.156C454.58 407.453 454.702 407.831 454.702 408.291C454.702 409.074 454.216 409.736 453.243 410.276C452.298 410.816 451.258 411.235 450.123 411.532C449.016 411.829 447.949 411.978 446.922 411.978C443.789 411.978 441.317 411.073 439.507 409.263C437.697 407.426 436.792 404.928 436.792 401.767C436.792 399.741 437.184 397.945 437.967 396.378C438.778 394.811 439.899 393.596 441.33 392.731C442.789 391.867 444.437 391.435 446.274 391.435C448.921 391.435 451.015 392.286 452.554 393.987C454.094 395.689 454.864 397.985 454.864 400.876C454.864 401.956 454.378 402.496 453.405 402.496H440.885C441.155 406.683 443.167 408.777 446.922 408.777C447.922 408.777 448.786 408.642 449.515 408.372C450.245 408.102 451.015 407.75 451.825 407.318C451.906 407.264 452.122 407.156 452.473 406.994C452.852 406.805 453.162 406.71 453.405 406.71ZM446.355 394.433C444.788 394.433 443.532 394.933 442.587 395.932C441.641 396.932 441.074 398.336 440.885 400.146H451.339C451.258 398.309 450.785 396.905 449.921 395.932C449.083 394.933 447.895 394.433 446.355 394.433ZM469.747 391.516C471.043 391.435 471.692 391.988 471.692 393.177C471.692 393.771 471.543 394.217 471.246 394.514C470.949 394.811 470.436 394.987 469.706 395.041L468.491 395.162C466.789 395.324 465.519 395.919 464.682 396.945C463.871 397.972 463.466 399.214 463.466 400.673V409.952C463.466 410.6 463.277 411.087 462.899 411.411C462.521 411.735 462.034 411.897 461.44 411.897C460.846 411.897 460.346 411.735 459.941 411.411C459.563 411.087 459.374 410.6 459.374 409.952V393.461C459.374 392.839 459.563 392.367 459.941 392.042C460.346 391.691 460.846 391.516 461.44 391.516C461.98 391.516 462.426 391.691 462.777 392.042C463.156 392.367 463.345 392.826 463.345 393.42V395.365C463.885 394.176 464.668 393.271 465.695 392.65C466.721 392.029 467.883 391.664 469.179 391.556L469.747 391.516ZM480.903 411.978C478.147 411.978 475.892 411.411 474.136 410.276C473.65 409.979 473.299 409.668 473.083 409.344C472.893 409.02 472.799 408.655 472.799 408.25C472.799 407.818 472.92 407.453 473.164 407.156C473.407 406.859 473.717 406.71 474.096 406.71C474.447 406.71 475 406.927 475.757 407.359C476.567 407.791 477.351 408.142 478.107 408.412C478.89 408.682 479.863 408.817 481.024 408.817C482.321 408.817 483.334 408.588 484.063 408.129C484.793 407.669 485.157 407.021 485.157 406.184C485.157 405.643 485.009 405.211 484.712 404.887C484.442 404.563 483.955 404.279 483.253 404.036C482.551 403.766 481.511 403.482 480.133 403.185C477.756 402.672 476.04 401.983 474.987 401.119C473.96 400.227 473.447 399.025 473.447 397.513C473.447 396.351 473.785 395.311 474.46 394.393C475.136 393.447 476.067 392.718 477.256 392.204C478.445 391.691 479.795 391.435 481.308 391.435C482.389 391.435 483.442 391.583 484.469 391.88C485.495 392.15 486.4 392.556 487.183 393.096C488.075 393.69 488.52 394.379 488.52 395.162C488.52 395.595 488.385 395.959 488.115 396.256C487.872 396.554 487.575 396.702 487.224 396.702C486.981 396.702 486.738 396.648 486.494 396.54C486.251 396.432 485.927 396.256 485.522 396.013C484.793 395.581 484.104 395.243 483.456 395C482.834 394.757 482.051 394.636 481.105 394.636C479.971 394.636 479.052 394.879 478.35 395.365C477.675 395.851 477.337 396.513 477.337 397.35C477.337 398.107 477.648 398.701 478.269 399.133C478.917 399.538 480.119 399.93 481.875 400.308C483.685 400.687 485.103 401.119 486.13 401.605C487.156 402.091 487.886 402.699 488.318 403.428C488.777 404.131 489.007 405.036 489.007 406.143C489.007 407.899 488.264 409.317 486.778 410.398C485.319 411.451 483.361 411.978 480.903 411.978Z" fill="white"/>
<path d="M159.152 194L150.947 182.148H150.461H141.891V194H132.045V151.455H150.461C154.229 151.455 157.491 152.083 160.246 153.339C163.042 154.595 165.19 156.378 166.689 158.687C168.188 160.997 168.938 163.732 168.938 166.892C168.938 170.053 168.168 172.788 166.628 175.098C165.129 177.367 162.981 179.109 160.185 180.325L169.728 194H159.152ZM158.97 166.892C158.97 164.502 158.2 162.678 156.66 161.422C155.121 160.126 152.872 159.477 149.914 159.477H141.891V174.308H149.914C152.872 174.308 155.121 173.659 156.66 172.363C158.2 171.066 158.97 169.243 158.97 166.892ZM209.013 161.301V194H200.017V190.11C198.761 191.528 197.262 192.622 195.52 193.392C193.777 194.122 191.893 194.486 189.867 194.486C185.572 194.486 182.168 193.25 179.656 190.779C177.144 188.307 175.888 184.64 175.888 179.778V161.301H185.369V178.38C185.369 183.647 187.578 186.281 191.994 186.281C194.263 186.281 196.087 185.552 197.464 184.093C198.842 182.594 199.531 180.385 199.531 177.468V161.301H209.013ZM238.887 192.42C237.955 193.109 236.8 193.635 235.423 194C234.085 194.324 232.667 194.486 231.168 194.486C227.278 194.486 224.259 193.494 222.112 191.508C220.005 189.523 218.951 186.605 218.951 182.756V169.324H213.907V162.03H218.951V154.068H228.433V162.03H236.577V169.324H228.433V182.634C228.433 184.012 228.777 185.086 229.466 185.856C230.196 186.585 231.209 186.95 232.505 186.95C234.004 186.95 235.281 186.544 236.334 185.734L238.887 192.42ZM264.084 160.815C268.136 160.815 271.398 162.03 273.87 164.461C276.382 166.892 277.638 170.499 277.638 175.28V194H268.156V176.739C268.156 174.145 267.589 172.221 266.455 170.965C265.32 169.668 263.679 169.02 261.531 169.02C259.141 169.02 257.236 169.769 255.818 171.269C254.4 172.727 253.691 174.915 253.691 177.833V194H244.209V148.902H253.691V164.704C254.947 163.448 256.467 162.496 258.249 161.848C260.032 161.159 261.977 160.815 264.084 160.815ZM289.642 148.416C291.344 148.416 292.742 148.963 293.836 150.057C294.93 151.11 295.477 152.508 295.477 154.25C295.477 155.061 295.375 155.871 295.173 156.682C294.97 157.492 294.545 158.708 293.896 160.328L290.371 169.081H284.354L286.968 159.477C285.955 159.032 285.164 158.363 284.597 157.472C284.03 156.58 283.746 155.506 283.746 154.25C283.746 152.508 284.293 151.11 285.387 150.057C286.522 148.963 287.94 148.416 289.642 148.416ZM311.835 194.486C309.12 194.486 306.466 194.162 303.873 193.514C301.28 192.825 299.213 191.974 297.673 190.961L300.834 184.154C302.293 185.086 304.055 185.856 306.122 186.463C308.188 187.031 310.214 187.314 312.2 187.314C316.211 187.314 318.217 186.322 318.217 184.336C318.217 183.404 317.67 182.736 316.576 182.33C315.482 181.925 313.8 181.581 311.531 181.297C308.857 180.892 306.648 180.426 304.906 179.899C303.164 179.372 301.644 178.441 300.348 177.103C299.091 175.766 298.463 173.862 298.463 171.39C298.463 169.324 299.051 167.5 300.226 165.92C301.442 164.299 303.184 163.043 305.453 162.152C307.763 161.26 310.477 160.815 313.597 160.815C315.907 160.815 318.196 161.078 320.465 161.605C322.775 162.091 324.68 162.78 326.179 163.671L323.018 170.418C320.141 168.797 317.001 167.986 313.597 167.986C311.571 167.986 310.052 168.27 309.039 168.837C308.026 169.405 307.52 170.134 307.52 171.025C307.52 172.038 308.067 172.748 309.161 173.153C310.255 173.558 311.997 173.943 314.388 174.308C317.062 174.753 319.25 175.239 320.952 175.766C322.654 176.252 324.133 177.164 325.389 178.501C326.645 179.838 327.273 181.702 327.273 184.093C327.273 186.119 326.665 187.922 325.449 189.502C324.234 191.083 322.451 192.318 320.101 193.21C317.791 194.061 315.036 194.486 311.835 194.486ZM360.85 159.356V170.6H380.543V178.501H360.85V194H351.004V151.455H383.156V159.356H360.85ZM401.452 160.815C406.517 160.815 410.407 162.03 413.122 164.461C415.837 166.852 417.194 170.478 417.194 175.341V194H408.32V189.928C406.538 192.967 403.215 194.486 398.353 194.486C395.84 194.486 393.652 194.061 391.788 193.21C389.965 192.359 388.567 191.184 387.595 189.685C386.622 188.185 386.136 186.484 386.136 184.579C386.136 181.54 387.271 179.15 389.54 177.407C391.849 175.665 395.395 174.794 400.176 174.794H407.713C407.713 172.727 407.085 171.147 405.828 170.053C404.572 168.918 402.688 168.351 400.176 168.351C398.434 168.351 396.712 168.635 395.01 169.202C393.348 169.729 391.93 170.458 390.755 171.39L387.352 164.765C389.134 163.509 391.262 162.537 393.733 161.848C396.246 161.159 398.819 160.815 401.452 160.815ZM400.723 188.104C402.344 188.104 403.782 187.74 405.038 187.01C406.294 186.241 407.186 185.126 407.713 183.668V180.325H401.209C397.319 180.325 395.374 181.601 395.374 184.154C395.374 185.369 395.84 186.342 396.772 187.071C397.745 187.76 399.062 188.104 400.723 188.104ZM436.776 194.486C434.062 194.486 431.408 194.162 428.814 193.514C426.221 192.825 424.155 191.974 422.615 190.961L425.775 184.154C427.234 185.086 428.997 185.856 431.063 186.463C433.13 187.031 435.156 187.314 437.141 187.314C441.153 187.314 443.158 186.322 443.158 184.336C443.158 183.404 442.611 182.736 441.517 182.33C440.423 181.925 438.742 181.581 436.473 181.297C433.798 180.892 431.59 180.426 429.848 179.899C428.105 179.372 426.586 178.441 425.289 177.103C424.033 175.766 423.405 173.862 423.405 171.39C423.405 169.324 423.993 167.5 425.168 165.92C426.383 164.299 428.126 163.043 430.395 162.152C432.704 161.26 435.419 160.815 438.539 160.815C440.849 160.815 443.138 161.078 445.407 161.605C447.717 162.091 449.621 162.78 451.12 163.671L447.96 170.418C445.083 168.797 441.943 167.986 438.539 167.986C436.513 167.986 434.994 168.27 433.981 168.837C432.968 169.405 432.461 170.134 432.461 171.025C432.461 172.038 433.008 172.748 434.102 173.153C435.196 173.558 436.939 173.943 439.329 174.308C442.004 174.753 444.192 175.239 445.893 175.766C447.595 176.252 449.074 177.164 450.33 178.501C451.586 179.838 452.214 181.702 452.214 184.093C452.214 186.119 451.607 187.922 450.391 189.502C449.175 191.083 447.393 192.318 445.042 193.21C442.733 194.061 439.978 194.486 436.776 194.486ZM477.939 160.815C481.991 160.815 485.253 162.03 487.725 164.461C490.237 166.892 491.493 170.499 491.493 175.28V194H482.011V176.739C482.011 174.145 481.444 172.221 480.31 170.965C479.175 169.668 477.534 169.02 475.387 169.02C472.996 169.02 471.091 169.769 469.673 171.269C468.255 172.727 467.546 174.915 467.546 177.833V194H458.064V148.902H467.546V164.704C468.802 163.448 470.322 162.496 472.104 161.848C473.887 161.159 475.832 160.815 477.939 160.815ZM500.088 161.301H509.569V194H500.088V161.301ZM504.828 156.742C503.086 156.742 501.668 156.236 500.574 155.223C499.48 154.21 498.933 152.954 498.933 151.455C498.933 149.955 499.48 148.699 500.574 147.686C501.668 146.673 503.086 146.167 504.828 146.167C506.571 146.167 507.989 146.653 509.083 147.625C510.177 148.598 510.724 149.814 510.724 151.272C510.724 152.852 510.177 154.169 509.083 155.223C507.989 156.236 506.571 156.742 504.828 156.742ZM533.928 194.486C530.484 194.486 527.384 193.777 524.629 192.359C521.914 190.9 519.787 188.895 518.247 186.342C516.708 183.789 515.938 180.892 515.938 177.65C515.938 174.409 516.708 171.512 518.247 168.959C519.787 166.406 521.914 164.421 524.629 163.003C527.384 161.544 530.484 160.815 533.928 160.815C537.372 160.815 540.452 161.544 543.167 163.003C545.882 164.421 548.009 166.406 549.549 168.959C551.088 171.512 551.858 174.409 551.858 177.65C551.858 180.892 551.088 183.789 549.549 186.342C548.009 188.895 545.882 190.9 543.167 192.359C540.452 193.777 537.372 194.486 533.928 194.486ZM533.928 186.706C536.359 186.706 538.345 185.896 539.885 184.275C541.465 182.614 542.255 180.406 542.255 177.65C542.255 174.895 541.465 172.707 539.885 171.086C538.345 169.425 536.359 168.594 533.928 168.594C531.497 168.594 529.491 169.425 527.911 171.086C526.331 172.707 525.541 174.895 525.541 177.65C525.541 180.406 526.331 182.614 527.911 184.275C529.491 185.896 531.497 186.706 533.928 186.706ZM578.071 160.815C582.123 160.815 585.384 162.03 587.856 164.461C590.368 166.892 591.624 170.499 591.624 175.28V194H582.143V176.739C582.143 174.145 581.576 172.221 580.441 170.965C579.306 169.668 577.665 169.02 575.518 169.02C573.127 169.02 571.223 169.769 569.805 171.269C568.386 172.727 567.677 174.915 567.677 177.833V194H558.196V161.301H567.252V165.13C568.508 163.752 570.068 162.699 571.932 161.969C573.796 161.199 575.842 160.815 578.071 160.815ZM146.024 279.729C142.661 279.729 139.399 279.284 136.238 278.392C133.118 277.46 130.606 276.265 128.702 274.806L132.045 267.391C133.868 268.728 136.036 269.802 138.548 270.612C141.06 271.423 143.572 271.828 146.085 271.828C148.881 271.828 150.947 271.423 152.284 270.612C153.621 269.762 154.29 268.647 154.29 267.27C154.29 266.257 153.885 265.426 153.074 264.778C152.304 264.089 151.291 263.542 150.035 263.137C148.82 262.731 147.158 262.286 145.051 261.799C141.81 261.03 139.156 260.26 137.089 259.49C135.023 258.72 133.24 257.484 131.741 255.782C130.282 254.081 129.553 251.811 129.553 248.975C129.553 246.503 130.221 244.275 131.558 242.289C132.896 240.263 134.901 238.663 137.576 237.488C140.29 236.313 143.593 235.725 147.483 235.725C150.197 235.725 152.851 236.049 155.445 236.698C158.038 237.346 160.307 238.278 162.252 239.494L159.213 246.969C155.283 244.741 151.352 243.626 147.422 243.626C144.666 243.626 142.62 244.072 141.283 244.964C139.986 245.855 139.338 247.03 139.338 248.489C139.338 249.948 140.088 251.042 141.587 251.771C143.127 252.46 145.457 253.149 148.577 253.837C151.818 254.607 154.472 255.377 156.539 256.147C158.605 256.917 160.368 258.132 161.826 259.794C163.326 261.455 164.075 263.704 164.075 266.54C164.075 268.971 163.386 271.2 162.009 273.226C160.672 275.211 158.646 276.792 155.931 277.967C153.216 279.142 149.914 279.729 146.024 279.729ZM191.225 277.42C190.293 278.109 189.138 278.635 187.761 279C186.424 279.324 185.005 279.486 183.506 279.486C179.616 279.486 176.598 278.494 174.45 276.508C172.343 274.523 171.29 271.605 171.29 267.756V254.324H166.245V247.03H171.29V239.068H180.771V247.03H188.916V254.324H180.771V267.634C180.771 269.012 181.116 270.086 181.804 270.856C182.534 271.585 183.547 271.95 184.843 271.95C186.343 271.95 187.619 271.544 188.672 270.734L191.225 277.42ZM211.098 279.486C207.654 279.486 204.554 278.777 201.799 277.359C199.084 275.9 196.957 273.895 195.417 271.342C193.877 268.789 193.107 265.892 193.107 262.65C193.107 259.409 193.877 256.512 195.417 253.959C196.957 251.406 199.084 249.421 201.799 248.003C204.554 246.544 207.654 245.815 211.098 245.815C214.542 245.815 217.622 246.544 220.336 248.003C223.051 249.421 225.179 251.406 226.718 253.959C228.258 256.512 229.028 259.409 229.028 262.65C229.028 265.892 228.258 268.789 226.718 271.342C225.179 273.895 223.051 275.9 220.336 277.359C217.622 278.777 214.542 279.486 211.098 279.486ZM211.098 271.706C213.529 271.706 215.515 270.896 217.054 269.275C218.635 267.614 219.425 265.406 219.425 262.65C219.425 259.895 218.635 257.707 217.054 256.086C215.515 254.425 213.529 253.594 211.098 253.594C208.667 253.594 206.661 254.425 205.081 256.086C203.501 257.707 202.71 259.895 202.71 262.65C202.71 265.406 203.501 267.614 205.081 269.275C206.661 270.896 208.667 271.706 211.098 271.706ZM244.422 250.616C245.556 249.036 247.076 247.841 248.98 247.03C250.925 246.22 253.154 245.815 255.666 245.815V254.567C254.612 254.486 253.903 254.445 253.539 254.445C250.824 254.445 248.696 255.215 247.157 256.755C245.617 258.254 244.847 260.523 244.847 263.562V279H235.366V246.301H244.422V250.616ZM293.037 262.772C293.037 262.894 292.977 263.744 292.855 265.325H268.118C268.564 267.351 269.617 268.951 271.278 270.126C272.94 271.301 275.006 271.889 277.478 271.889C279.18 271.889 280.679 271.646 281.976 271.159C283.313 270.633 284.549 269.822 285.683 268.728L290.728 274.198C287.648 277.724 283.151 279.486 277.235 279.486C273.548 279.486 270.286 278.777 267.449 277.359C264.613 275.9 262.425 273.895 260.885 271.342C259.345 268.789 258.576 265.892 258.576 262.65C258.576 259.449 259.325 256.572 260.824 254.02C262.364 251.426 264.451 249.421 267.085 248.003C269.759 246.544 272.737 245.815 276.019 245.815C279.22 245.815 282.117 246.503 284.711 247.881C287.304 249.259 289.33 251.244 290.789 253.837C292.288 256.39 293.037 259.368 293.037 262.772ZM276.08 252.986C273.933 252.986 272.129 253.594 270.671 254.81C269.212 256.025 268.321 257.687 267.996 259.794H284.103C283.779 257.727 282.887 256.086 281.429 254.871C279.97 253.615 278.187 252.986 276.08 252.986Z" fill="white"/>
<path d="M1286.98 129.754C1288.49 158.208 1292.35 186.662 1298.5 215.116L1322.04 211.239L1322.25 206.703L1326.01 210.909L1336.89 208.801L1365.7 201.068C1372.27 199.019 1382.18 195.929 1393.01 192.558L1390.03 184.184L1398.1 181.27C1395.33 158.684 1382.95 127.597 1370.67 102.932L1290.6 124.634L1286.98 129.754Z" fill="#171724"/>
<path d="M1369.53 213.144L1337.45 220.857L1331.36 186.73L1359.48 179.969L1369.53 213.144Z" fill="#EC5E48"/>
<path d="M1331.36 186.73L1333.21 197.115C1343.45 195.803 1352.59 192.024 1361.53 186.73L1359.48 179.969L1331.36 186.73Z" fill="#171724"/>
<path d="M1375.96 140.119L1368.76 110.101L1290.77 128.85L1297.97 158.868C1303.14 180.425 1324.79 193.705 1346.33 188.536C1367.87 183.349 1381.14 161.676 1375.96 140.119Z" fill="#EC5E48"/>
<path d="M1297.3 175.138C1302.74 172.377 1304.23 164.354 1300.62 157.218C1297.01 150.081 1289.67 146.534 1284.22 149.295C1278.77 152.056 1277.29 160.079 1280.9 167.216C1284.51 174.352 1291.85 177.899 1297.3 175.138Z" fill="#EC5E48"/>
<path d="M1386.16 153.178C1392.27 153.162 1397.2 146.664 1397.18 138.665C1397.16 130.665 1392.19 124.193 1386.09 124.209C1379.98 124.225 1375.05 130.723 1375.07 138.722C1375.09 146.722 1380.06 153.194 1386.16 153.178Z" fill="#EC5E48"/>
<path d="M1287.54 132.484L1305.31 206.538L1316.68 203.808L1299.21 141.674C1309.04 135.631 1319.68 138.439 1329.19 133.543L1333.09 121.924L1336.89 131.114C1349.69 129.326 1356.08 127.685 1367.42 122.487L1382.59 187.973L1393.33 185.389L1372.35 107.954C1366.56 87.4664 1350.45 78.121 1323.35 83.4932C1296.38 89.9631 1281.93 109.101 1287.54 132.484Z" fill="#171724"/>
<path d="M1323.36 162.577C1324.97 162.19 1325.55 158.877 1324.67 155.178C1323.78 151.479 1321.75 148.795 1320.14 149.182C1318.53 149.569 1317.95 152.881 1318.83 156.58C1319.72 160.279 1321.75 162.964 1323.36 162.577Z" fill="#171724"/>
<path d="M1358.06 153.968C1359.67 153.581 1360.26 150.269 1359.37 146.57C1358.48 142.871 1356.46 140.186 1354.85 140.573C1353.24 140.96 1352.65 144.273 1353.54 147.972C1354.43 151.671 1356.45 154.355 1358.06 153.968Z" fill="#171724"/>
<path d="M1345.3 210.696C1308.25 217.876 1287.16 238.373 1292.39 279.961L1318.84 465.14H1448.4L1435.51 262.99C1426.69 212.737 1385.99 203.226 1345.3 210.696Z" fill="white"/>
<path d="M1448.4 466.102H1318.84C1318.35 466.102 1317.95 465.743 1317.88 465.267L1291.42 280.088C1288.88 259.833 1292.52 243.59 1302.24 231.806C1311.2 220.945 1325.62 213.524 1345.11 209.745H1345.12C1364.08 206.267 1390.92 205.072 1411.11 219.129C1424.49 228.435 1433.02 243.134 1436.46 262.815C1436.47 262.854 1436.47 262.883 1436.47 262.922L1449.36 465.072C1449.38 465.344 1449.28 465.607 1449.1 465.801C1448.92 465.995 1448.67 466.102 1448.4 466.102ZM1319.67 464.159H1447.36L1434.54 263.097C1431.17 243.979 1422.91 229.718 1410 220.722C1390.35 207.044 1364.06 208.239 1345.47 211.649C1305.6 219.381 1288.55 241.676 1293.35 279.835L1319.67 464.159Z" fill="black"/>
<path d="M1379.62 422.775H1396.54L1411.17 394.399C1417.16 386.919 1426.71 378.467 1435.78 379.555L1460.56 388.91C1464.18 391.514 1462.21 397.955 1457.81 397.148L1434.95 391.203L1430.38 398.528L1441.35 400.587L1457.3 419.016C1465.64 430.314 1444.16 453.104 1436.08 446.119C1429.81 440.038 1426.53 435.822 1422.99 439.445C1412.84 449.267 1407.08 458.525 1396.24 457.874H1374.15L1379.62 422.775Z" fill="#EC5E48"/>
<path d="M1261.66 266.021C1246.96 291.483 1218.46 398.926 1215.04 446.848C1214.37 456.194 1218.57 465.073 1227.78 466.792L1385.12 496.208L1397.12 408.145L1305.85 398.198L1324.69 285.713C1327.23 269.616 1333.83 240.045 1315.45 231.914C1295.19 225.521 1276.95 238.5 1261.66 266.021Z" fill="white"/>
<path d="M1385.11 497.189C1385.06 497.189 1385 497.179 1384.94 497.169L1227.6 467.754C1217.35 465.84 1213.42 455.844 1214.07 446.79C1217.59 397.401 1246.5 290.346 1260.82 265.545C1276.87 236.654 1295.85 224.715 1315.74 230.99C1315.77 231 1315.8 231.01 1315.83 231.029C1333.46 238.83 1329.15 264.729 1326.29 281.866C1326.06 283.274 1325.84 284.605 1325.64 285.868L1306.97 397.352L1397.23 407.183C1397.49 407.212 1397.72 407.348 1397.89 407.552C1398.05 407.756 1398.12 408.019 1398.08 408.281L1386.08 496.344C1386.05 496.606 1385.91 496.849 1385.69 497.004C1385.51 497.121 1385.32 497.189 1385.11 497.189ZM1305.25 231.262C1289.86 231.262 1275.53 243.066 1262.5 266.497L1262.5 266.507C1248.26 291.153 1219.51 397.721 1216 446.916C1215.18 458.292 1221.42 464.616 1227.96 465.83L1384.3 495.061L1396.02 408.99L1305.74 399.159C1305.48 399.13 1305.23 398.994 1305.07 398.78C1304.9 398.566 1304.84 398.294 1304.89 398.032L1323.73 285.547C1323.93 284.294 1324.15 282.954 1324.39 281.545C1327.14 265.011 1331.3 240.044 1315.11 232.826C1311.78 231.787 1308.49 231.262 1305.25 231.262Z" fill="black"/>
<path d="M1351.07 210.191L1338.9 247.534L1314.78 222.053C1321.7 216.642 1334.95 211.59 1351.07 210.191Z" fill="white"/>
<path d="M1338.91 248.506C1338.65 248.506 1338.39 248.399 1338.2 248.204L1314.1 222.723C1313.91 222.529 1313.81 222.257 1313.83 221.985C1313.85 221.713 1313.99 221.46 1314.2 221.295C1322.06 215.146 1336.15 210.522 1350.99 209.23C1351.31 209.21 1351.63 209.336 1351.84 209.589C1352.04 209.842 1352.1 210.182 1352 210.492L1339.83 247.835C1339.73 248.156 1339.45 248.408 1339.12 248.486C1339.05 248.496 1338.98 248.506 1338.91 248.506ZM1316.25 222.179L1338.49 245.679L1349.69 211.299C1333.92 212.892 1322.3 217.808 1316.25 222.179Z" fill="black"/>
<path d="M1352.26 209.588L1383.43 235.808L1397.11 213.018C1381.1 208.393 1368.55 206.995 1352.26 209.588Z" fill="white"/>
<path d="M1383.43 236.78C1383.21 236.78 1382.99 236.702 1382.81 236.556L1351.64 210.337C1351.35 210.094 1351.23 209.696 1351.33 209.336C1351.43 208.967 1351.74 208.695 1352.12 208.637C1367.58 206.179 1380.26 207.15 1397.39 212.085C1397.68 212.173 1397.91 212.386 1398.02 212.668C1398.13 212.95 1398.11 213.261 1397.95 213.523L1384.28 236.313C1384.13 236.556 1383.89 236.721 1383.61 236.77C1383.54 236.77 1383.48 236.78 1383.43 236.78ZM1354.53 210.23L1383.18 234.332L1395.62 213.601C1380.19 209.268 1368.38 208.287 1354.53 210.23Z" fill="black"/>
</svg>
